<svg width="128" height="128" viewBox="0 0 128 128" xmlns="http://www.w3.org/2000/svg">
  <!-- Background -->
  <rect x="24" y="16" width="80" height="96" rx="8" fill="#ffffff" stroke="#2196f3" stroke-width="6"/>
  
  <!-- Browser top bar -->
  <rect x="24" y="16" width="80" height="20" rx="8" fill="#2196f3"/>
  
  <!-- Browser buttons -->
  <circle cx="36" cy="26" r="4" fill="#ffffff"/>
  <circle cx="48" cy="26" r="4" fill="#ffffff"/>
  <circle cx="60" cy="26" r="4" fill="#ffffff"/>
  
  <!-- Content lines being wiped -->
  <g transform="rotate(-45, 64, 64)">
    <!-- Static content lines (left side - "cleaned") -->
    <rect x="34" y="46" width="25" height="4" rx="2" fill="#f5f5f5"/>
    <rect x="34" y="58" width="20" height="4" rx="2" fill="#f5f5f5"/>
    <rect x="34" y="70" width="22" height="4" rx="2" fill="#f5f5f5"/>
    
    <!-- Static content lines (right side - "not yet cleaned") -->
    <rect x="64" y="46" width="30" height="4" rx="2" fill="#e0e0e0"/>
    <rect x="64" y="58" width="20" height="4" rx="2" fill="#e0e0e0"/>
    <rect x="64" y="70" width="25" height="4" rx="2" fill="#e0e0e0"/>
    
    <!-- Static wipe effect -->
    <rect x="56" y="40" width="16" height="60" fill="#2196f3" opacity="0.3"/>
    
    <!-- Static eraser -->
    <rect x="60" y="40" width="8" height="60" fill="#2196f3"/>
  </g>
</svg> 